<svg xmlns="http://www.w3.org/2000/svg" width="1400" height="900" viewBox="0 0 1400 900"><rect width="100%" height="100%" fill="#050505"/><text x="40" y="55" font-family="Arial" font-size="30" font-weight="bold" fill="white">🧬 DNA do Projeto</text><line x1="700" y1="130" x2="700" y2="130" stroke="#8d4cff" stroke-width="2"/><circle cx="700" cy="130" r="7" fill="#d98cff"/><circle cx="700" cy="130" r="7" fill="#6cc7ff"/><line x1="796" y1="135" x2="605" y2="135" stroke="#8d4cff" stroke-width="2"/><circle cx="796" cy="135" r="7" fill="#d98cff"/><circle cx="605" cy="135" r="7" fill="#6cc7ff"/><line x1="880" y1="140" x2="520" y2="140" stroke="#8d4cff" stroke-width="2"/><circle cx="880" cy="140" r="7" fill="#d98cff"/><circle cx="520" cy="140" r="7" fill="#6cc7ff"/><line x1="942" y1="145" x2="458" y2="145" stroke="#8d4cff" stroke-width="2"/><circle cx="942" cy="145" r="7" fill="#d98cff"/><circle cx="458" cy="145" r="7" fill="#6cc7ff"/><line x1="975" y1="150" x2="425" y2="150" stroke="#8d4cff" stroke-width="2"/><circle cx="975" cy="150" r="7" fill="#d98cff"/><circle cx="425" cy="150" r="7" fill="#6cc7ff"/><line x1="975" y1="155" x2="425" y2="155" stroke="#8d4cff" stroke-width="2"/><circle cx="975" cy="155" r="7" fill="#d98cff"/><circle cx="425" cy="155" r="7" fill="#6cc7ff"/><line x1="941" y1="160" x2="459" y2="160" stroke="#8d4cff" stroke-width="2"/><circle cx="941" cy="160" r="7" fill="#d98cff"/><circle cx="459" cy="160" r="7" fill="#6cc7ff"/><line x1="878" y1="165" x2="522" y2="165" stroke="#8d4cff" stroke-width="2"/><circle cx="878" cy="165" r="7" fill="#d98cff"/><circle cx="522" cy="165" r="7" fill="#6cc7ff"/><line x1="793" y1="170" x2="606" y2="170" stroke="#8d4cff" stroke-width="2"/><circle cx="793" cy="170" r="7" fill="#d98cff"/><circle cx="606" cy="170" r="7" fill="#6cc7ff"/><line x1="698" y1="175" x2="701" y2="175" stroke="#8d4cff" stroke-width="2"/><circle cx="698" cy="175" r="7" fill="#d98cff"/><circle cx="701" cy="175" r="7" fill="#6cc7ff"/><line x1="602" y1="180" x2="797" y2="180" stroke="#8d4cff" stroke-width="2"/><circle cx="602" cy="180" r="7" fill="#d98cff"/><circle cx="797" cy="180" r="7" fill="#6cc7ff"/><line x1="518" y1="185" x2="881" y2="185" stroke="#8d4cff" stroke-width="2"/><circle cx="518" cy="185" r="7" fill="#d98cff"/><circle cx="881" cy="185" r="7" fill="#6cc7ff"/><line x1="456" y1="190" x2="943" y2="190" stroke="#8d4cff" stroke-width="2"/><circle cx="456" cy="190" r="7" fill="#d98cff"/><circle cx="943" cy="190" r="7" fill="#6cc7ff"/><line x1="424" y1="195" x2="976" y2="195" stroke="#8d4cff" stroke-width="2"/><circle cx="424" cy="195" r="7" fill="#d98cff"/><circle cx="976" cy="195" r="7" fill="#6cc7ff"/><line x1="425" y1="200" x2="975" y2="200" stroke="#8d4cff" stroke-width="2"/><circle cx="425" cy="200" r="7" fill="#d98cff"/><circle cx="975" cy="200" r="7" fill="#6cc7ff"/><line x1="460" y1="205" x2="940" y2="205" stroke="#8d4cff" stroke-width="2"/><circle cx="460" cy="205" r="7" fill="#d98cff"/><circle cx="940" cy="205" r="7" fill="#6cc7ff"/><line x1="524" y1="210" x2="877" y2="210" stroke="#8d4cff" stroke-width="2"/><circle cx="524" cy="210" r="7" fill="#d98cff"/><circle cx="877" cy="210" r="7" fill="#6cc7ff"/><line x1="609" y1="215" x2="791" y2="215" stroke="#8d4cff" stroke-width="2"/><circle cx="609" cy="215" r="7" fill="#d98cff"/><circle cx="791" cy="215" r="7" fill="#6cc7ff"/><line x1="704" y1="220" x2="696" y2="220" stroke="#8d4cff" stroke-width="2"/><circle cx="704" cy="220" r="7" fill="#d98cff"/><circle cx="696" cy="220" r="7" fill="#6cc7ff"/><line x1="800" y1="225" x2="600" y2="225" stroke="#8d4cff" stroke-width="2"/><circle cx="800" cy="225" r="7" fill="#d98cff"/><circle cx="600" cy="225" r="7" fill="#6cc7ff"/><line x1="883" y1="230" x2="517" y2="230" stroke="#8d4cff" stroke-width="2"/><circle cx="883" cy="230" r="7" fill="#d98cff"/><circle cx="517" cy="230" r="7" fill="#6cc7ff"/><line x1="945" y1="235" x2="456" y2="235" stroke="#8d4cff" stroke-width="2"/><circle cx="945" cy="235" r="7" fill="#d98cff"/><circle cx="456" cy="235" r="7" fill="#6cc7ff"/><line x1="976" y1="240" x2="424" y2="240" stroke="#8d4cff" stroke-width="2"/><circle cx="976" cy="240" r="7" fill="#d98cff"/><circle cx="424" cy="240" r="7" fill="#6cc7ff"/><line x1="974" y1="245" x2="426" y2="245" stroke="#8d4cff" stroke-width="2"/><circle cx="974" cy="245" r="7" fill="#d98cff"/><circle cx="426" cy="245" r="7" fill="#6cc7ff"/><line x1="939" y1="250" x2="461" y2="250" stroke="#8d4cff" stroke-width="2"/><circle cx="939" cy="250" r="7" fill="#d98cff"/><circle cx="461" cy="250" r="7" fill="#6cc7ff"/><line x1="874" y1="255" x2="525" y2="255" stroke="#8d4cff" stroke-width="2"/><circle cx="874" cy="255" r="7" fill="#d98cff"/><circle cx="525" cy="255" r="7" fill="#6cc7ff"/><line x1="789" y1="260" x2="611" y2="260" stroke="#8d4cff" stroke-width="2"/><circle cx="789" cy="260" r="7" fill="#d98cff"/><circle cx="611" cy="260" r="7" fill="#6cc7ff"/><line x1="693" y1="265" x2="706" y2="265" stroke="#8d4cff" stroke-width="2"/><circle cx="693" cy="265" r="7" fill="#d98cff"/><circle cx="706" cy="265" r="7" fill="#6cc7ff"/><line x1="598" y1="270" x2="802" y2="270" stroke="#8d4cff" stroke-width="2"/><circle cx="598" cy="270" r="7" fill="#d98cff"/><circle cx="802" cy="270" r="7" fill="#6cc7ff"/><line x1="515" y1="275" x2="885" y2="275" stroke="#8d4cff" stroke-width="2"/><circle cx="515" cy="275" r="7" fill="#d98cff"/><circle cx="885" cy="275" r="7" fill="#6cc7ff"/><line x1="454" y1="280" x2="946" y2="280" stroke="#8d4cff" stroke-width="2"/><circle cx="454" cy="280" r="7" fill="#d98cff"/><circle cx="946" cy="280" r="7" fill="#6cc7ff"/><line x1="423" y1="285" x2="976" y2="285" stroke="#8d4cff" stroke-width="2"/><circle cx="423" cy="285" r="7" fill="#d98cff"/><circle cx="976" cy="285" r="7" fill="#6cc7ff"/><line x1="426" y1="290" x2="974" y2="290" stroke="#8d4cff" stroke-width="2"/><circle cx="426" cy="290" r="7" fill="#d98cff"/><circle cx="974" cy="290" r="7" fill="#6cc7ff"/><line x1="462" y1="295" x2="938" y2="295" stroke="#8d4cff" stroke-width="2"/><circle cx="462" cy="295" r="7" fill="#d98cff"/><circle cx="938" cy="295" r="7" fill="#6cc7ff"/><line x1="527" y1="300" x2="873" y2="300" stroke="#8d4cff" stroke-width="2"/><circle cx="527" cy="300" r="7" fill="#d98cff"/><circle cx="873" cy="300" r="7" fill="#6cc7ff"/><line x1="613" y1="305" x2="787" y2="305" stroke="#8d4cff" stroke-width="2"/><circle cx="613" cy="305" r="7" fill="#d98cff"/><circle cx="787" cy="305" r="7" fill="#6cc7ff"/><line x1="709" y1="310" x2="692" y2="310" stroke="#8d4cff" stroke-width="2"/><circle cx="709" cy="310" r="7" fill="#d98cff"/><circle cx="692" cy="310" r="7" fill="#6cc7ff"/><line x1="804" y1="315" x2="596" y2="315" stroke="#8d4cff" stroke-width="2"/><circle cx="804" cy="315" r="7" fill="#d98cff"/><circle cx="596" cy="315" r="7" fill="#6cc7ff"/><line x1="887" y1="320" x2="513" y2="320" stroke="#8d4cff" stroke-width="2"/><circle cx="887" cy="320" r="7" fill="#d98cff"/><circle cx="513" cy="320" r="7" fill="#6cc7ff"/><line x1="947" y1="325" x2="453" y2="325" stroke="#8d4cff" stroke-width="2"/><circle cx="947" cy="325" r="7" fill="#d98cff"/><circle cx="453" cy="325" r="7" fill="#6cc7ff"/><line x1="977" y1="330" x2="423" y2="330" stroke="#8d4cff" stroke-width="2"/><circle cx="977" cy="330" r="7" fill="#d98cff"/><circle cx="423" cy="330" r="7" fill="#6cc7ff"/><line x1="973" y1="335" x2="427" y2="335" stroke="#8d4cff" stroke-width="2"/><circle cx="973" cy="335" r="7" fill="#d98cff"/><circle cx="427" cy="335" r="7" fill="#6cc7ff"/><line x1="936" y1="340" x2="463" y2="340" stroke="#8d4cff" stroke-width="2"/><circle cx="936" cy="340" r="7" fill="#d98cff"/><circle cx="463" cy="340" r="7" fill="#6cc7ff"/><line x1="871" y1="345" x2="529" y2="345" stroke="#8d4cff" stroke-width="2"/><circle cx="871" cy="345" r="7" fill="#d98cff"/><circle cx="529" cy="345" r="7" fill="#6cc7ff"/><line x1="784" y1="350" x2="615" y2="350" stroke="#8d4cff" stroke-width="2"/><circle cx="784" cy="350" r="7" fill="#d98cff"/><circle cx="615" cy="350" r="7" fill="#6cc7ff"/><line x1="689" y1="355" x2="711" y2="355" stroke="#8d4cff" stroke-width="2"/><circle cx="689" cy="355" r="7" fill="#d98cff"/><circle cx="711" cy="355" r="7" fill="#6cc7ff"/><line x1="594" y1="360" x2="806" y2="360" stroke="#8d4cff" stroke-width="2"/><circle cx="594" cy="360" r="7" fill="#d98cff"/><circle cx="806" cy="360" r="7" fill="#6cc7ff"/><line x1="511" y1="365" x2="888" y2="365" stroke="#8d4cff" stroke-width="2"/><circle cx="511" cy="365" r="7" fill="#d98cff"/><circle cx="888" cy="365" r="7" fill="#6cc7ff"/><line x1="452" y1="370" x2="948" y2="370" stroke="#8d4cff" stroke-width="2"/><circle cx="452" cy="370" r="7" fill="#d98cff"/><circle cx="948" cy="370" r="7" fill="#6cc7ff"/><line x1="423" y1="375" x2="977" y2="375" stroke="#8d4cff" stroke-width="2"/><circle cx="423" cy="375" r="7" fill="#d98cff"/><circle cx="977" cy="375" r="7" fill="#6cc7ff"/><line x1="427" y1="380" x2="973" y2="380" stroke="#8d4cff" stroke-width="2"/><circle cx="427" cy="380" r="7" fill="#d98cff"/><circle cx="973" cy="380" r="7" fill="#6cc7ff"/><line x1="465" y1="385" x2="935" y2="385" stroke="#8d4cff" stroke-width="2"/><circle cx="465" cy="385" r="7" fill="#d98cff"/><circle cx="935" cy="385" r="7" fill="#6cc7ff"/><line x1="531" y1="390" x2="869" y2="390" stroke="#8d4cff" stroke-width="2"/><circle cx="531" cy="390" r="7" fill="#d98cff"/><circle cx="869" cy="390" r="7" fill="#6cc7ff"/><line x1="618" y1="395" x2="783" y2="395" stroke="#8d4cff" stroke-width="2"/><circle cx="618" cy="395" r="7" fill="#d98cff"/><circle cx="783" cy="395" r="7" fill="#6cc7ff"/><line x1="714" y1="400" x2="687" y2="400" stroke="#8d4cff" stroke-width="2"/><circle cx="714" cy="400" r="7" fill="#d98cff"/><circle cx="687" cy="400" r="7" fill="#6cc7ff"/><line x1="809" y1="405" x2="592" y2="405" stroke="#8d4cff" stroke-width="2"/><circle cx="809" cy="405" r="7" fill="#d98cff"/><circle cx="592" cy="405" r="7" fill="#6cc7ff"/><line x1="890" y1="410" x2="510" y2="410" stroke="#8d4cff" stroke-width="2"/><circle cx="890" cy="410" r="7" fill="#d98cff"/><circle cx="510" cy="410" r="7" fill="#6cc7ff"/><line x1="949" y1="415" x2="451" y2="415" stroke="#8d4cff" stroke-width="2"/><circle cx="949" cy="415" r="7" fill="#d98cff"/><circle cx="451" cy="415" r="7" fill="#6cc7ff"/><line x1="977" y1="420" x2="423" y2="420" stroke="#8d4cff" stroke-width="2"/><circle cx="977" cy="420" r="7" fill="#d98cff"/><circle cx="423" cy="420" r="7" fill="#6cc7ff"/><line x1="972" y1="425" x2="428" y2="425" stroke="#8d4cff" stroke-width="2"/><circle cx="972" cy="425" r="7" fill="#d98cff"/><circle cx="428" cy="425" r="7" fill="#6cc7ff"/><line x1="934" y1="430" x2="466" y2="430" stroke="#8d4cff" stroke-width="2"/><circle cx="934" cy="430" r="7" fill="#d98cff"/><circle cx="466" cy="430" r="7" fill="#6cc7ff"/><line x1="867" y1="435" x2="533" y2="435" stroke="#8d4cff" stroke-width="2"/><circle cx="867" cy="435" r="7" fill="#d98cff"/><circle cx="533" cy="435" r="7" fill="#6cc7ff"/><line x1="780" y1="440" x2="620" y2="440" stroke="#8d4cff" stroke-width="2"/><circle cx="780" cy="440" r="7" fill="#d98cff"/><circle cx="620" cy="440" r="7" fill="#6cc7ff"/><line x1="684" y1="445" x2="716" y2="445" stroke="#8d4cff" stroke-width="2"/><circle cx="684" cy="445" r="7" fill="#d98cff"/><circle cx="716" cy="445" r="7" fill="#6cc7ff"/><line x1="589" y1="450" x2="810" y2="450" stroke="#8d4cff" stroke-width="2"/><circle cx="589" cy="450" r="7" fill="#d98cff"/><circle cx="810" cy="450" r="7" fill="#6cc7ff"/><line x1="508" y1="455" x2="892" y2="455" stroke="#8d4cff" stroke-width="2"/><circle cx="508" cy="455" r="7" fill="#d98cff"/><circle cx="892" cy="455" r="7" fill="#6cc7ff"/><line x1="450" y1="460" x2="950" y2="460" stroke="#8d4cff" stroke-width="2"/><circle cx="450" cy="460" r="7" fill="#d98cff"/><circle cx="950" cy="460" r="7" fill="#6cc7ff"/><line x1="422" y1="465" x2="978" y2="465" stroke="#8d4cff" stroke-width="2"/><circle cx="422" cy="465" r="7" fill="#d98cff"/><circle cx="978" cy="465" r="7" fill="#6cc7ff"/><line x1="428" y1="470" x2="972" y2="470" stroke="#8d4cff" stroke-width="2"/><circle cx="428" cy="470" r="7" fill="#d98cff"/><circle cx="972" cy="470" r="7" fill="#6cc7ff"/><line x1="468" y1="475" x2="933" y2="475" stroke="#8d4cff" stroke-width="2"/><circle cx="468" cy="475" r="7" fill="#d98cff"/><circle cx="933" cy="475" r="7" fill="#6cc7ff"/><line x1="535" y1="480" x2="865" y2="480" stroke="#8d4cff" stroke-width="2"/><circle cx="535" cy="480" r="7" fill="#d98cff"/><circle cx="865" cy="480" r="7" fill="#6cc7ff"/><line x1="622" y1="485" x2="778" y2="485" stroke="#8d4cff" stroke-width="2"/><circle cx="622" cy="485" r="7" fill="#d98cff"/><circle cx="778" cy="485" r="7" fill="#6cc7ff"/><line x1="718" y1="490" x2="682" y2="490" stroke="#8d4cff" stroke-width="2"/><circle cx="718" cy="490" r="7" fill="#d98cff"/><circle cx="682" cy="490" r="7" fill="#6cc7ff"/><line x1="813" y1="495" x2="587" y2="495" stroke="#8d4cff" stroke-width="2"/><circle cx="813" cy="495" r="7" fill="#d98cff"/><circle cx="587" cy="495" r="7" fill="#6cc7ff"/><line x1="894" y1="500" x2="506" y2="500" stroke="#8d4cff" stroke-width="2"/><circle cx="894" cy="500" r="7" fill="#d98cff"/><circle cx="506" cy="500" r="7" fill="#6cc7ff"/><line x1="951" y1="505" x2="449" y2="505" stroke="#8d4cff" stroke-width="2"/><circle cx="951" cy="505" r="7" fill="#d98cff"/><circle cx="449" cy="505" r="7" fill="#6cc7ff"/><line x1="978" y1="510" x2="422" y2="510" stroke="#8d4cff" stroke-width="2"/><circle cx="978" cy="510" r="7" fill="#d98cff"/><circle cx="422" cy="510" r="7" fill="#6cc7ff"/><line x1="971" y1="515" x2="429" y2="515" stroke="#8d4cff" stroke-width="2"/><circle cx="971" cy="515" r="7" fill="#d98cff"/><circle cx="429" cy="515" r="7" fill="#6cc7ff"/><line x1="931" y1="520" x2="469" y2="520" stroke="#8d4cff" stroke-width="2"/><circle cx="931" cy="520" r="7" fill="#d98cff"/><circle cx="469" cy="520" r="7" fill="#6cc7ff"/><line x1="863" y1="525" x2="536" y2="525" stroke="#8d4cff" stroke-width="2"/><circle cx="863" cy="525" r="7" fill="#d98cff"/><circle cx="536" cy="525" r="7" fill="#6cc7ff"/><line x1="775" y1="530" x2="624" y2="530" stroke="#8d4cff" stroke-width="2"/><circle cx="775" cy="530" r="7" fill="#d98cff"/><circle cx="624" cy="530" r="7" fill="#6cc7ff"/><line x1="679" y1="535" x2="720" y2="535" stroke="#8d4cff" stroke-width="2"/><circle cx="679" cy="535" r="7" fill="#d98cff"/><circle cx="720" cy="535" r="7" fill="#6cc7ff"/><line x1="585" y1="540" x2="815" y2="540" stroke="#8d4cff" stroke-width="2"/><circle cx="585" cy="540" r="7" fill="#d98cff"/><circle cx="815" cy="540" r="7" fill="#6cc7ff"/><line x1="504" y1="545" x2="895" y2="545" stroke="#8d4cff" stroke-width="2"/><circle cx="504" cy="545" r="7" fill="#d98cff"/><circle cx="895" cy="545" r="7" fill="#6cc7ff"/><line x1="448" y1="550" x2="952" y2="550" stroke="#8d4cff" stroke-width="2"/><circle cx="448" cy="550" r="7" fill="#d98cff"/><circle cx="952" cy="550" r="7" fill="#6cc7ff"/><line x1="422" y1="555" x2="978" y2="555" stroke="#8d4cff" stroke-width="2"/><circle cx="422" cy="555" r="7" fill="#d98cff"/><circle cx="978" cy="555" r="7" fill="#6cc7ff"/><line x1="430" y1="560" x2="971" y2="560" stroke="#8d4cff" stroke-width="2"/><circle cx="430" cy="560" r="7" fill="#d98cff"/><circle cx="971" cy="560" r="7" fill="#6cc7ff"/><line x1="470" y1="565" x2="930" y2="565" stroke="#8d4cff" stroke-width="2"/><circle cx="470" cy="565" r="7" fill="#d98cff"/><circle cx="930" cy="565" r="7" fill="#6cc7ff"/><line x1="539" y1="570" x2="862" y2="570" stroke="#8d4cff" stroke-width="2"/><circle cx="539" cy="570" r="7" fill="#d98cff"/><circle cx="862" cy="570" r="7" fill="#6cc7ff"/><line x1="627" y1="575" x2="774" y2="575" stroke="#8d4cff" stroke-width="2"/><circle cx="627" cy="575" r="7" fill="#d98cff"/><circle cx="774" cy="575" r="7" fill="#6cc7ff"/><line x1="723" y1="580" x2="677" y2="580" stroke="#8d4cff" stroke-width="2"/><circle cx="723" cy="580" r="7" fill="#d98cff"/><circle cx="677" cy="580" r="7" fill="#6cc7ff"/><line x1="817" y1="585" x2="583" y2="585" stroke="#8d4cff" stroke-width="2"/><circle cx="817" cy="585" r="7" fill="#d98cff"/><circle cx="583" cy="585" r="7" fill="#6cc7ff"/><line x1="897" y1="590" x2="503" y2="590" stroke="#8d4cff" stroke-width="2"/><circle cx="897" cy="590" r="7" fill="#d98cff"/><circle cx="503" cy="590" r="7" fill="#6cc7ff"/><line x1="953" y1="595" x2="447" y2="595" stroke="#8d4cff" stroke-width="2"/><circle cx="953" cy="595" r="7" fill="#d98cff"/><circle cx="447" cy="595" r="7" fill="#6cc7ff"/><line x1="978" y1="600" x2="422" y2="600" stroke="#8d4cff" stroke-width="2"/><circle cx="978" cy="600" r="7" fill="#d98cff"/><circle cx="422" cy="600" r="7" fill="#6cc7ff"/><line x1="970" y1="605" x2="430" y2="605" stroke="#8d4cff" stroke-width="2"/><circle cx="970" cy="605" r="7" fill="#d98cff"/><circle cx="430" cy="605" r="7" fill="#6cc7ff"/><line x1="928" y1="610" x2="471" y2="610" stroke="#8d4cff" stroke-width="2"/><circle cx="928" cy="610" r="7" fill="#d98cff"/><circle cx="471" cy="610" r="7" fill="#6cc7ff"/><line x1="859" y1="615" x2="540" y2="615" stroke="#8d4cff" stroke-width="2"/><circle cx="859" cy="615" r="7" fill="#d98cff"/><circle cx="540" cy="615" r="7" fill="#6cc7ff"/><line x1="771" y1="620" x2="629" y2="620" stroke="#8d4cff" stroke-width="2"/><circle cx="771" cy="620" r="7" fill="#d98cff"/><circle cx="629" cy="620" r="7" fill="#6cc7ff"/><line x1="675" y1="625" x2="725" y2="625" stroke="#8d4cff" stroke-width="2"/><circle cx="675" cy="625" r="7" fill="#d98cff"/><circle cx="725" cy="625" r="7" fill="#6cc7ff"/><line x1="581" y1="630" x2="819" y2="630" stroke="#8d4cff" stroke-width="2"/><circle cx="581" cy="630" r="7" fill="#d98cff"/><circle cx="819" cy="630" r="7" fill="#6cc7ff"/><line x1="501" y1="635" x2="899" y2="635" stroke="#8d4cff" stroke-width="2"/><circle cx="501" cy="635" r="7" fill="#d98cff"/><circle cx="899" cy="635" r="7" fill="#6cc7ff"/><line x1="446" y1="640" x2="954" y2="640" stroke="#8d4cff" stroke-width="2"/><circle cx="446" cy="640" r="7" fill="#d98cff"/><circle cx="954" cy="640" r="7" fill="#6cc7ff"/><line x1="421" y1="645" x2="979" y2="645" stroke="#8d4cff" stroke-width="2"/><circle cx="421" cy="645" r="7" fill="#d98cff"/><circle cx="979" cy="645" r="7" fill="#6cc7ff"/><line x1="431" y1="650" x2="969" y2="650" stroke="#8d4cff" stroke-width="2"/><circle cx="431" cy="650" r="7" fill="#d98cff"/><circle cx="969" cy="650" r="7" fill="#6cc7ff"/><line x1="473" y1="655" x2="927" y2="655" stroke="#8d4cff" stroke-width="2"/><circle cx="473" cy="655" r="7" fill="#d98cff"/><circle cx="927" cy="655" r="7" fill="#6cc7ff"/><line x1="543" y1="660" x2="858" y2="660" stroke="#8d4cff" stroke-width="2"/><circle cx="543" cy="660" r="7" fill="#d98cff"/><circle cx="858" cy="660" r="7" fill="#6cc7ff"/><line x1="631" y1="665" x2="769" y2="665" stroke="#8d4cff" stroke-width="2"/><circle cx="631" cy="665" r="7" fill="#d98cff"/><circle cx="769" cy="665" r="7" fill="#6cc7ff"/><line x1="728" y1="670" x2="673" y2="670" stroke="#8d4cff" stroke-width="2"/><circle cx="728" cy="670" r="7" fill="#d98cff"/><circle cx="673" cy="670" r="7" fill="#6cc7ff"/><line x1="822" y1="675" x2="579" y2="675" stroke="#8d4cff" stroke-width="2"/><circle cx="822" cy="675" r="7" fill="#d98cff"/><circle cx="579" cy="675" r="7" fill="#6cc7ff"/><line x1="901" y1="680" x2="500" y2="680" stroke="#8d4cff" stroke-width="2"/><circle cx="901" cy="680" r="7" fill="#d98cff"/><circle cx="500" cy="680" r="7" fill="#6cc7ff"/><line x1="955" y1="685" x2="445" y2="685" stroke="#8d4cff" stroke-width="2"/><circle cx="955" cy="685" r="7" fill="#d98cff"/><circle cx="445" cy="685" r="7" fill="#6cc7ff"/><line x1="979" y1="690" x2="421" y2="690" stroke="#8d4cff" stroke-width="2"/><circle cx="979" cy="690" r="7" fill="#d98cff"/><circle cx="421" cy="690" r="7" fill="#6cc7ff"/><line x1="969" y1="695" x2="431" y2="695" stroke="#8d4cff" stroke-width="2"/><circle cx="969" cy="695" r="7" fill="#d98cff"/><circle cx="431" cy="695" r="7" fill="#6cc7ff"/><line x1="926" y1="700" x2="474" y2="700" stroke="#8d4cff" stroke-width="2"/><circle cx="926" cy="700" r="7" fill="#d98cff"/><circle cx="474" cy="700" r="7" fill="#6cc7ff"/><line x1="855" y1="705" x2="544" y2="705" stroke="#8d4cff" stroke-width="2"/><circle cx="855" cy="705" r="7" fill="#d98cff"/><circle cx="544" cy="705" r="7" fill="#6cc7ff"/><line x1="766" y1="710" x2="633" y2="710" stroke="#8d4cff" stroke-width="2"/><circle cx="766" cy="710" r="7" fill="#d98cff"/><circle cx="633" cy="710" r="7" fill="#6cc7ff"/><line x1="670" y1="715" x2="730" y2="715" stroke="#8d4cff" stroke-width="2"/><circle cx="670" cy="715" r="7" fill="#d98cff"/><circle cx="730" cy="715" r="7" fill="#6cc7ff"/><line x1="576" y1="720" x2="823" y2="720" stroke="#8d4cff" stroke-width="2"/><circle cx="576" cy="720" r="7" fill="#d98cff"/><circle cx="823" cy="720" r="7" fill="#6cc7ff"/><line x1="498" y1="725" x2="902" y2="725" stroke="#8d4cff" stroke-width="2"/><circle cx="498" cy="725" r="7" fill="#d98cff"/><circle cx="902" cy="725" r="7" fill="#6cc7ff"/><text x="40" y="850" font-family="Arial" font-size="18" fill="#aaa">Tipos de arquivo: 13</text></svg>
