<svg xmlns="http://www.w3.org/2000/svg" width="1400" height="850" viewBox="0 0 1400 850"><rect width="100%" height="100%" fill="#050505"/><text x="40" y="55" font-family="Arial" font-size="30" font-weight="bold" fill="white">🧠 Mapa Funcional</text><line x1="700" y1="120" x2="700" y2="270" stroke="#492060" stroke-width="3"/><line x1="700" y1="120" x2="700" y2="420" stroke="#492060" stroke-width="3"/><line x1="700" y1="120" x2="250" y2="600" stroke="#492060" stroke-width="3"/><line x1="700" y1="120" x2="500" y2="600" stroke="#492060" stroke-width="3"/><line x1="700" y1="120" x2="900" y2="600" stroke="#492060" stroke-width="3"/><line x1="700" y1="120" x2="1150" y2="600" stroke="#492060" stroke-width="3"/><line x1="700" y1="120" x2="250" y2="760" stroke="#492060" stroke-width="3"/><line x1="700" y1="120" x2="500" y2="760" stroke="#492060" stroke-width="3"/><line x1="700" y1="120" x2="900" y2="760" stroke="#492060" stroke-width="3"/><circle cx="700" cy="120" r="55" fill="#151515" stroke="#a855f7" stroke-width="3"/><text x="700" y="125" text-anchor="middle" font-family="Arial" font-size="13" fill="white">APLICATIVO</text><circle cx="700" cy="270" r="55" fill="#151515" stroke="#a855f7" stroke-width="3"/><text x="700" y="275" text-anchor="middle" font-family="Arial" font-size="13" fill="white">ANDROID</text><circle cx="700" cy="420" r="55" fill="#151515" stroke="#a855f7" stroke-width="3"/><text x="700" y="425" text-anchor="middle" font-family="Arial" font-size="13" fill="white">KOTLIN</text><circle cx="250" cy="600" r="55" fill="#151515" stroke="#a855f7" stroke-width="3"/><text x="250" y="605" text-anchor="middle" font-family="Arial" font-size="13" fill="white">SOS</text><circle cx="500" cy="600" r="55" fill="#151515" stroke="#a855f7" stroke-width="3"/><text x="500" y="605" text-anchor="middle" font-family="Arial" font-size="13" fill="white">LOCALIZAÇÃO</text><circle cx="900" cy="600" r="55" fill="#151515" stroke="#a855f7" stroke-width="3"/><text x="900" y="605" text-anchor="middle" font-family="Arial" font-size="13" fill="white">SENSORES</text><circle cx="1150" cy="600" r="55" fill="#151515" stroke="#a855f7" stroke-width="3"/><text x="1150" y="605" text-anchor="middle" font-family="Arial" font-size="13" fill="white">NOTIFICAÇÕES</text><circle cx="250" cy="760" r="55" fill="#151515" stroke="#a855f7" stroke-width="3"/><text x="250" y="765" text-anchor="middle" font-family="Arial" font-size="13" fill="white">RECURSOS</text><circle cx="500" cy="760" r="55" fill="#151515" stroke="#a855f7" stroke-width="3"/><text x="500" y="765" text-anchor="middle" font-family="Arial" font-size="13" fill="white">GRADLE</text><circle cx="900" cy="760" r="55" fill="#151515" stroke="#a855f7" stroke-width="3"/><text x="900" y="765" text-anchor="middle" font-family="Arial" font-size="13" fill="white">GITHUB</text></svg>
